<svg width="16" height="16" viewBox="0 0 16 16" fill="none" xmlns="http://www.w3.org/2000/svg">
<path fill-rule="evenodd" clip-rule="evenodd" d="M0.500054 0C0.223996 0 0 0.223994 0 0.500051V6.49998C0 6.77603 0.223996 7.00003 0.500054 7.00003H6.50001C6.77607 7.00003 7.00006 6.77603 7.00006 6.49998V0.500051C7.00006 0.223994 6.77607 0 6.50001 0H0.500054ZM9.49999 0C9.22393 0 8.99994 0.223994 8.99994 0.500051V6.49998C8.99994 6.77603 9.22393 7.00003 9.49999 7.00003H15.4999C15.776 7.00003 16 6.77603 16 6.49998V0.500051C16 0.223994 15.776 0 15.4999 0H9.49999ZM8.99994 9.50002C8.99994 9.22397 9.22393 8.99997 9.49999 8.99997H15.4999C15.776 8.99997 16 9.22397 16 9.50002V15.4999C16 15.776 15.776 16 15.4999 16H9.49999C9.22393 16 8.99994 15.776 8.99994 15.4999V9.50002ZM0.500139 8.99997C0.224081 8.99997 8.56666e-05 9.22397 8.56666e-05 9.50002V15.4999C8.56666e-05 15.776 0.224081 16 0.500139 16H6.5001C6.77615 16 7.00015 15.776 7.00015 15.4999V9.50002C7.00015 9.22397 6.77615 8.99997 6.5001 8.99997H0.500139Z" fill="white"/>
<path fill-rule="evenodd" clip-rule="evenodd" d="M8.99994 9.50002C8.99994 9.22396 9.22393 8.99997 9.49999 8.99997H15.4999C15.776 8.99997 16 9.22396 16 9.50002V15.4999C16 15.776 15.776 16 15.4999 16H9.49999C9.22393 16 8.99994 15.776 8.99994 15.4999V9.50002Z" fill="#4D9CD3"/>
</svg>
