<svg width="27" height="27" viewBox="0 0 27 27" fill="none" xmlns="http://www.w3.org/2000/svg">
<path opacity="0.3" fill-rule="evenodd" clip-rule="evenodd" d="M5.91663 8.15365C5.91663 10.5469 7.85673 12.487 10.25 12.487C12.6432 12.487 14.5833 10.5469 14.5833 8.15365C14.5833 5.76041 12.6432 3.82031 10.25 3.82031C7.85673 3.82031 5.91663 5.76041 5.91663 8.15365ZM16.75 12.487C16.75 14.2819 18.205 15.737 20 15.737C21.7949 15.737 23.25 14.2819 23.25 12.487C23.25 10.6921 21.7949 9.23698 20 9.23698C18.205 9.23698 16.75 10.6921 16.75 12.487Z" fill="white"/>
<path fill-rule="evenodd" clip-rule="evenodd" d="M10.232 14.6536C5.11707 14.6536 0.920613 17.2824 0.500706 22.4528C0.477833 22.7344 1.01644 23.3203 1.28813 23.3203H19.1839C19.9977 23.3203 20.0104 22.6654 19.9977 22.4536C19.6803 17.1379 15.4188 14.6536 10.232 14.6536ZM25.9106 23.3203H21.7333C21.7333 20.8818 20.9276 18.6315 19.5679 16.821C23.2583 16.8613 26.2716 18.7271 26.4984 22.6703C26.5075 22.8291 26.4984 23.3203 25.9106 23.3203Z" fill="white"/>
</svg>